<svg t="1752914624151" class="icon" viewBox="0 0 1051 1024" version="1.1" xmlns="http://www.w3.org/2000/svg" width="48" height="48">
  <path d="M210.393996 472.446294h73.053471v160.717636h-73.053471z" fill="var(--theme-main)"/>
  <path d="M791.169091 531.619605V300.770637H431.746014v-50.406895a127.843574 127.843574 0 0 0 91.316838-121.268762 127.843574 127.843574 0 1 0-164.370309 121.268762v50.406895H0V804.839587h475.578096a230.118434 230.118434 0 0 0 127.11304 131.496248V1024l159.256567-52.598499c157.795497 0 285.639072-100.083255 285.639071-219.160413s-112.502345-207.471858-256.417683-220.621483zM341.15971 129.09498A54.059569 54.059569 0 0 1 395.219278 74.304877a54.790103 54.790103 0 1 1 0 108.849672 54.059569 54.059569 0 0 1-54.059568-54.059569zM73.053471 373.824108h645.062149v157.064963h-34.335131l-32.143528 8.035882-18.993902 5.844277-29.951923 11.688556-18.263368 13.149624h-6.574812V472.446294h-73.053471v160.717636H511.374297a239.615385 239.615385 0 0 0-23.377111 25.568715l-5.844277 13.149625a155.603893 155.603893 0 0 0-10.227486 25.568715 127.11304 127.11304 0 0 0 0 16.071763v16.071764H73.053471z m683.049954 522.332318l-80.358818 24.83818v-34.335131L651.636961 877.893058a159.256567 159.256567 0 0 1-113.23288-116.885554 56.251173 56.251173 0 0 1 0-10.95802c0-80.358818 97.891651-146.106942 219.160413-146.106942 118.346623 0 219.160413 67.939728 219.160413 146.106942s-100.083255 146.106942-220.621482 146.106942z" fill="var(--theme-main)"/>
  <path d="M684.511023 714.253283a36.526736 36.526736 0 0 0-36.526735 36.526735 35.065666 35.065666 0 0 0 4.383208 17.532833 36.526736 36.526736 0 0 0 64.287055 0 35.065666 35.065666 0 0 0 4.383208-17.532833 36.526736 36.526736 0 0 0-36.526736-36.526735z" fill="var(--theme-main)"/>
  <path d="M827.695826 750.780018m-36.526735 0a36.526736 36.526736 0 1 0 73.053471 0 36.526736 36.526736 0 1 0-73.053471 0Z" fill="var(--theme-main)"/>
</svg>
